<?xml version="1.0" encoding="UTF-8" standalone="no" ?>
<!DOCTYPE svg PUBLIC "-//W3C//DTD SVG 1.1//EN" "http://www.w3.org/Graphics/SVG/1.1/DTD/svg11.dtd">
<svg xmlns="http://www.w3.org/2000/svg" xmlns:xlink="http://www.w3.org/1999/xlink" version="1.1" width="1080" height="1080" viewBox="0 0 1080 1080" xml:space="preserve">
<desc>Created with Fabric.js 5.2.4</desc>
<defs>
</defs>
<g transform="matrix(1 0 0 1 540 540)" id="fb0c53b5-ca0d-4d4a-81fe-fc2efd8e4088"  >
</g>
<g transform="matrix(1 0 0 1 540 540)" id="92f4e96b-327c-4773-9e94-41d7b6124a64"  >
<rect style="stroke: none; stroke-width: 1; stroke-dasharray: none; stroke-linecap: butt; stroke-dashoffset: 0; stroke-linejoin: miter; stroke-miterlimit: 4; fill: rgb(255,255,255); fill-rule: nonzero; opacity: 1; visibility: hidden;" vector-effect="non-scaling-stroke"  x="-540" y="-540" rx="0" ry="0" width="1080" height="1080" />
</g>
<g transform="matrix(1 0 0 1 540 540)"  >
<rect style="stroke: none; stroke-width: 1; stroke-dasharray: none; stroke-linecap: butt; stroke-dashoffset: 0; stroke-linejoin: miter; stroke-miterlimit: 4; fill: rgb(255,255,255); fill-rule: nonzero; opacity: 1; visibility: hidden;" vector-effect="non-scaling-stroke"  x="-540" y="-540" rx="0" ry="0" width="1080" height="1080" />
</g>
<g transform="matrix(1 0 0 1 503 972.5)"  >
<path style="stroke: rgb(0,0,0); stroke-width: 1; stroke-dasharray: none; stroke-linecap: butt; stroke-dashoffset: 0; stroke-linejoin: miter; stroke-miterlimit: 4; fill: none; fill-rule: nonzero; opacity: 1;" vector-effect="non-scaling-stroke"  transform=" translate(-528, -1049)" d="M 525 1047 L 525 1048 L 527 1050 L 528 1050 L 529 1051 L 531 1051 L 530 1051 L 529 1050 L 528 1050 Z" stroke-linecap="round" />
</g>
<g transform="matrix(1 0 0 1 229 845.5)"  >
<path style="stroke: rgb(0,0,0); stroke-width: 1; stroke-dasharray: none; stroke-linecap: butt; stroke-dashoffset: 0; stroke-linejoin: miter; stroke-miterlimit: 4; fill: none; fill-rule: nonzero; opacity: 1;" vector-effect="non-scaling-stroke"  transform=" translate(-254, -922)" d="M 254 922 Z" stroke-linecap="round" />
</g>
<g transform="matrix(1.22 0 0 1.22 540 540)"  >
<path style="stroke: rgb(255,255,255); stroke-width: 1; stroke-dasharray: none; stroke-linecap: butt; stroke-dashoffset: 0; stroke-linejoin: miter; stroke-miterlimit: 4; fill: rgb(27,131,0); fill-rule: nonzero; opacity: 1;" vector-effect="non-scaling-stroke"  transform=" translate(-565, -615)" d="M 546 182 L 545 183 L 533 183 L 532 184 L 519 184 L 518 185 L 513 185 L 512 186 L 504 186 L 503 187 L 498 187 L 497 188 L 493 188 L 492 189 L 485 189 L 484 190 L 481 190 L 480 191 L 476 191 L 475 192 L 472 192 L 471 193 L 467 193 L 466 194 L 462 194 L 461 195 L 459 195 L 458 196 L 455 196 L 454 197 L 452 197 L 451 198 L 448 198 L 447 199 L 444 199 L 443 200 L 441 200 L 440 201 L 437 201 L 436 202 L 435 202 L 434 203 L 432 203 L 431 204 L 428 204 L 426 206 L 423 206 L 422 207 L 420 207 L 419 208 L 417 208 L 416 209 L 414 209 L 413 210 L 411 210 L 410 211 L 409 211 L 408 212 L 407 212 L 406 213 L 404 213 L 403 214 L 402 214 L 401 215 L 400 215 L 399 216 L 396 216 L 395 217 L 394 217 L 393 218 L 392 218 L 391 219 L 390 219 L 389 220 L 387 220 L 386 221 L 385 221 L 384 222 L 383 222 L 382 223 L 381 223 L 380 224 L 379 224 L 378 225 L 377 225 L 376 226 L 374 226 L 372 228 L 371 228 L 370 229 L 369 229 L 368 230 L 367 230 L 366 231 L 365 231 L 364 232 L 363 232 L 362 233 L 361 233 L 360 234 L 359 234 L 358 235 L 357 235 L 356 236 L 355 236 L 353 238 L 352 238 L 351 239 L 350 239 L 349 240 L 348 240 L 346 242 L 345 242 L 344 243 L 343 243 L 341 245 L 340 245 L 339 246 L 338 246 L 336 248 L 335 248 L 333 250 L 332 250 L 330 252 L 329 252 L 328 253 L 327 253 L 325 255 L 324 255 L 321 258 L 320 258 L 318 260 L 317 260 L 314 263 L 313 263 L 310 266 L 309 266 L 307 268 L 306 268 L 302 272 L 301 272 L 299 274 L 298 274 L 295 277 L 294 277 L 288 283 L 287 283 L 281 289 L 280 289 L 271 298 L 270 298 L 248 320 L 248 321 L 239 330 L 239 331 L 233 337 L 233 338 L 227 344 L 227 345 L 224 348 L 224 349 L 221 352 L 221 353 L 218 356 L 218 357 L 215 360 L 215 361 L 213 363 L 213 364 L 211 366 L 211 367 L 208 370 L 208 371 L 205 374 L 205 375 L 203 377 L 203 378 L 202 379 L 202 380 L 200 382 L 200 383 L 199 384 L 199 385 L 196 388 L 196 389 L 195 390 L 195 391 L 193 393 L 193 394 L 192 395 L 192 396 L 190 398 L 190 399 L 189 400 L 189 401 L 188 402 L 188 403 L 186 405 L 186 406 L 185 407 L 185 408 L 184 409 L 184 410 L 183 411 L 183 412 L 181 414 L 181 415 L 180 416 L 180 417 L 179 418 L 179 419 L 178 420 L 178 422 L 176 424 L 176 426 L 175 427 L 175 428 L 174 429 L 174 430 L 173 431 L 173 432 L 172 433 L 172 434 L 171 435 L 171 436 L 170 437 L 170 439 L 169 440 L 169 441 L 168 442 L 168 443 L 167 444 L 167 446 L 166 447 L 166 449 L 165 450 L 165 451 L 164 452 L 164 453 L 163 454 L 163 456 L 162 457 L 162 458 L 161 459 L 161 461 L 160 462 L 160 463 L 159 464 L 159 466 L 158 467 L 158 469 L 157 470 L 157 471 L 156 472 L 156 475 L 155 476 L 155 477 L 154 478 L 154 480 L 153 481 L 153 484 L 152 485 L 152 486 L 151 487 L 151 490 L 150 491 L 150 493 L 149 494 L 149 497 L 148 498 L 148 501 L 147 502 L 147 504 L 146 505 L 146 508 L 145 509 L 145 511 L 144 512 L 144 516 L 143 517 L 143 521 L 142 522 L 142 525 L 141 526 L 141 530 L 140 531 L 140 534 L 139 535 L 139 541 L 138 542 L 138 547 L 137 548 L 137 552 L 136 553 L 136 561 L 135 562 L 135 568 L 134 569 L 134 582 L 133 583 L 133 595 L 132 596 L 132 635 L 133 636 L 133 648 L 134 649 L 134 662 L 135 663 L 135 669 L 136 670 L 136 678 L 137 679 L 137 684 L 138 685 L 138 689 L 139 690 L 139 696 L 140 697 L 140 700 L 141 701 L 141 706 L 142 707 L 142 709 L 143 710 L 143 714 L 144 715 L 144 719 L 145 720 L 145 722 L 146 723 L 146 726 L 147 727 L 147 729 L 148 730 L 148 733 L 149 734 L 149 737 L 150 738 L 150 740 L 151 741 L 151 744 L 152 745 L 152 747 L 153 748 L 153 750 L 154 751 L 154 753 L 155 754 L 155 755 L 156 756 L 156 759 L 157 760 L 157 761 L 158 762 L 158 765 L 159 766 L 159 767 L 160 768 L 160 770 L 161 771 L 161 773 L 162 774 L 162 775 L 163 776 L 163 778 L 164 779 L 164 780 L 165 781 L 165 782 L 166 783 L 166 785 L 167 786 L 167 787 L 168 788 L 168 790 L 170 792 L 170 794 L 171 795 L 171 796 L 172 797 L 172 798 L 173 799 L 173 800 L 174 801 L 174 802 L 175 803 L 175 805 L 176 806 L 176 807 L 177 808 L 177 809 L 179 811 L 179 813 L 180 814 L 180 815 L 181 816 L 181 817 L 183 819 L 183 820 L 184 821 L 184 822 L 185 823 L 185 824 L 186 825 L 186 826 L 187 827 L 187 828 L 188 829 L 188 830 L 190 832 L 190 833 L 192 835 L 192 836 L 193 837 L 193 838 L 194 839 L 194 840 L 196 842 L 196 843 L 198 845 L 198 846 L 200 848 L 200 849 L 201 850 L 201 851 L 203 853 L 203 854 L 205 856 L 205 857 L 208 860 L 208 861 L 210 863 L 210 864 L 212 866 L 212 867 L 214 869 L 214 870 L 217 873 L 217 874 L 220 877 L 220 878 L 223 881 L 223 882 L 227 886 L 227 887 L 231 891 L 231 892 L 235 896 L 235 897 L 244 906 L 244 907 L 248 911 L 249 911 L 250 912 L 250 913 L 270 933 L 271 933 L 279 941 L 280 941 L 286 947 L 287 947 L 292 952 L 293 952 L 297 956 L 298 956 L 301 959 L 302 959 L 305 962 L 306 962 L 308 964 L 309 964 L 312 967 L 313 967 L 316 970 L 317 970 L 319 972 L 320 972 L 323 975 L 324 975 L 326 977 L 327 977 L 328 978 L 329 978 L 331 980 L 332 980 L 334 982 L 335 982 L 337 984 L 338 984 L 339 985 L 340 985 L 341 986 L 342 986 L 344 988 L 345 988 L 346 989 L 347 989 L 349 991 L 350 991 L 351 992 L 352 992 L 354 994 L 355 994 L 356 995 L 357 995 L 358 996 L 359 996 L 360 997 L 361 997 L 362 998 L 363 998 L 365 1000 L 366 1000 L 367 1001 L 368 1001 L 369 1002 L 371 1002 L 372 1003 L 373 1003 L 374 1004 L 375 1004 L 376 1005 L 377 1005 L 378 1006 L 379 1006 L 380 1007 L 381 1007 L 382 1008 L 383 1008 L 384 1009 L 385 1009 L 386 1010 L 387 1010 L 388 1011 L 390 1011 L 391 1012 L 392 1012 L 393 1013 L 394 1013 L 395 1014 L 397 1014 L 398 1015 L 400 1015 L 401 1016 L 402 1016 L 404 1018 L 407 1018 L 408 1019 L 409 1019 L 410 1020 L 412 1020 L 413 1021 L 414 1021 L 415 1022 L 417 1022 L 418 1023 L 420 1023 L 421 1024 L 422 1024 L 423 1025 L 426 1025 L 427 1026 L 429 1026 L 430 1027 L 432 1027 L 433 1028 L 435 1028 L 436 1029 L 438 1029 L 439 1030 L 444 1030 L 445 1031 L 450 1031 L 451 1030 L 455 1030 L 456 1029 L 457 1029 L 458 1028 L 460 1028 L 461 1027 L 462 1027 L 470 1019 L 470 1018 L 471 1017 L 471 1015 L 472 1014 L 472 1012 L 473 1011 L 473 999 L 472 998 L 472 995 L 471 994 L 471 993 L 470 992 L 470 991 L 469 990 L 469 989 L 464 984 L 463 984 L 461 982 L 460 982 L 458 980 L 455 980 L 454 979 L 452 979 L 451 978 L 449 978 L 448 977 L 446 977 L 445 976 L 443 976 L 442 975 L 440 975 L 439 974 L 438 974 L 437 973 L 434 973 L 433 972 L 432 972 L 431 971 L 429 971 L 428 970 L 427 970 L 426 969 L 425 969 L 424 968 L 422 968 L 421 967 L 419 967 L 418 966 L 417 966 L 416 965 L 415 965 L 414 964 L 413 964 L 412 963 L 410 963 L 409 962 L 408 962 L 407 961 L 406 961 L 405 960 L 404 960 L 403 959 L 402 959 L 401 958 L 400 958 L 399 957 L 398 957 L 397 956 L 396 956 L 395 955 L 393 955 L 391 953 L 390 953 L 389 952 L 388 952 L 387 951 L 386 951 L 384 949 L 383 949 L 382 948 L 381 948 L 380 947 L 379 947 L 378 946 L 377 946 L 375 944 L 374 944 L 373 943 L 372 943 L 370 941 L 369 941 L 368 940 L 367 940 L 365 938 L 364 938 L 362 936 L 361 936 L 359 934 L 358 934 L 357 933 L 356 933 L 354 931 L 353 931 L 350 928 L 349 928 L 347 926 L 346 926 L 343 923 L 342 923 L 339 920 L 338 920 L 335 917 L 334 917 L 331 914 L 330 914 L 325 909 L 324 909 L 318 903 L 317 903 L 311 897 L 310 897 L 284 871 L 284 870 L 279 865 L 279 864 L 272 857 L 272 856 L 267 851 L 267 850 L 264 847 L 264 846 L 261 843 L 261 842 L 258 839 L 258 838 L 256 836 L 256 835 L 254 833 L 254 832 L 251 829 L 251 828 L 249 826 L 249 825 L 247 823 L 247 822 L 245 820 L 245 819 L 243 817 L 243 816 L 242 815 L 242 814 L 240 812 L 240 811 L 239 810 L 239 809 L 237 807 L 237 806 L 236 805 L 236 804 L 235 803 L 235 802 L 233 800 L 233 799 L 232 798 L 232 797 L 231 796 L 231 795 L 230 794 L 230 793 L 228 791 L 228 790 L 226 788 L 226 786 L 225 785 L 225 784 L 224 783 L 224 782 L 223 781 L 223 779 L 222 778 L 222 777 L 220 775 L 220 774 L 219 773 L 219 772 L 218 771 L 218 769 L 217 768 L 217 767 L 216 766 L 216 765 L 215 764 L 215 762 L 214 761 L 214 760 L 213 759 L 213 757 L 212 756 L 212 755 L 211 754 L 211 753 L 210 752 L 210 750 L 209 749 L 209 747 L 208 746 L 208 744 L 207 743 L 207 742 L 206 741 L 206 739 L 205 738 L 205 736 L 204 735 L 204 733 L 203 732 L 203 730 L 202 729 L 202 728 L 201 727 L 201 723 L 200 722 L 200 719 L 199 718 L 199 717 L 198 716 L 198 713 L 197 712 L 197 710 L 196 709 L 196 705 L 195 704 L 195 701 L 194 700 L 194 698 L 193 697 L 193 692 L 192 691 L 192 688 L 191 687 L 191 681 L 190 680 L 190 676 L 189 675 L 189 671 L 188 670 L 188 661 L 187 660 L 187 654 L 186 653 L 186 642 L 185 641 L 185 614 L 184 613 L 185 612 L 185 588 L 186 587 L 186 578 L 187 577 L 187 571 L 188 570 L 188 560 L 189 559 L 189 555 L 190 554 L 190 549 L 191 548 L 191 544 L 192 543 L 192 540 L 193 539 L 193 533 L 194 532 L 194 530 L 195 529 L 195 526 L 196 525 L 196 521 L 197 520 L 197 518 L 198 517 L 198 514 L 199 513 L 199 511 L 200 510 L 200 507 L 201 506 L 201 503 L 202 502 L 202 501 L 203 500 L 203 497 L 204 496 L 204 495 L 205 494 L 205 491 L 206 490 L 206 488 L 207 487 L 207 486 L 208 485 L 208 484 L 209 483 L 209 482 L 210 481 L 210 478 L 211 477 L 211 476 L 212 475 L 212 474 L 213 473 L 213 471 L 214 470 L 214 469 L 215 468 L 215 466 L 216 465 L 216 464 L 217 463 L 217 462 L 218 461 L 218 460 L 219 459 L 219 457 L 220 456 L 220 455 L 222 453 L 222 451 L 223 450 L 223 449 L 224 448 L 224 447 L 225 446 L 225 445 L 226 444 L 226 443 L 227 442 L 227 441 L 228 440 L 228 439 L 230 437 L 230 436 L 231 435 L 231 434 L 232 433 L 232 432 L 233 431 L 233 430 L 235 428 L 235 427 L 236 426 L 236 425 L 237 424 L 237 423 L 239 421 L 239 420 L 240 419 L 240 418 L 242 416 L 242 415 L 244 413 L 244 412 L 245 411 L 245 410 L 247 408 L 247 407 L 249 405 L 249 404 L 252 401 L 252 400 L 254 398 L 254 397 L 257 394 L 257 393 L 260 390 L 260 389 L 262 387 L 262 386 L 266 382 L 266 381 L 270 377 L 270 376 L 274 372 L 274 371 L 279 366 L 279 365 L 287 357 L 287 356 L 288 355 L 289 355 L 290 354 L 290 353 L 295 348 L 296 348 L 297 347 L 297 346 L 301 342 L 302 342 L 314 330 L 315 330 L 321 324 L 322 324 L 326 320 L 327 320 L 331 316 L 332 316 L 335 313 L 336 313 L 339 310 L 340 310 L 343 307 L 344 307 L 347 304 L 348 304 L 350 302 L 351 302 L 353 300 L 354 300 L 356 298 L 357 298 L 359 296 L 360 296 L 362 294 L 363 294 L 365 292 L 366 292 L 368 290 L 369 290 L 370 289 L 371 289 L 373 287 L 374 287 L 375 286 L 376 286 L 377 285 L 378 285 L 380 283 L 381 283 L 382 282 L 383 282 L 384 281 L 385 281 L 386 280 L 387 280 L 388 279 L 389 279 L 391 277 L 392 277 L 393 276 L 394 276 L 395 275 L 396 275 L 397 274 L 398 274 L 399 273 L 401 273 L 402 272 L 403 272 L 405 270 L 406 270 L 407 269 L 409 269 L 410 268 L 411 268 L 412 267 L 413 267 L 414 266 L 415 266 L 416 265 L 418 265 L 419 264 L 421 264 L 422 263 L 423 263 L 424 262 L 425 262 L 426 261 L 428 261 L 429 260 L 431 260 L 432 259 L 434 259 L 435 258 L 436 258 L 437 257 L 438 257 L 439 256 L 441 256 L 442 255 L 444 255 L 445 254 L 447 254 L 448 253 L 450 253 L 451 252 L 452 252 L 453 251 L 456 251 L 457 250 L 461 250 L 462 249 L 463 249 L 464 248 L 467 248 L 468 247 L 470 247 L 471 246 L 475 246 L 476 245 L 479 245 L 480 244 L 483 244 L 484 243 L 489 243 L 490 242 L 493 242 L 494 241 L 500 241 L 501 240 L 505 240 L 506 239 L 509 239 L 510 238 L 522 238 L 523 237 L 525 237 L 526 238 L 531 238 L 532 239 L 533 239 L 534 240 L 535 240 L 537 242 L 538 242 L 540 244 L 540 245 L 542 247 L 542 248 L 544 250 L 544 251 L 545 252 L 545 256 L 546 257 L 546 262 L 545 263 L 545 266 L 544 267 L 544 271 L 543 272 L 543 273 L 542 274 L 542 277 L 541 278 L 541 280 L 540 281 L 540 284 L 539 285 L 539 287 L 538 288 L 538 290 L 537 291 L 537 295 L 536 296 L 536 297 L 535 298 L 535 301 L 534 302 L 534 304 L 533 305 L 533 308 L 532 309 L 532 312 L 531 313 L 531 314 L 530 315 L 530 318 L 529 319 L 529 322 L 528 323 L 528 325 L 527 326 L 527 329 L 526 330 L 526 331 L 525 332 L 525 335 L 524 336 L 524 339 L 523 340 L 523 342 L 522 343 L 522 346 L 521 347 L 521 348 L 520 349 L 520 353 L 519 354 L 519 356 L 518 357 L 518 359 L 517 360 L 517 363 L 516 364 L 516 366 L 515 367 L 515 370 L 514 371 L 514 374 L 513 375 L 513 376 L 512 377 L 512 381 L 511 382 L 511 383 L 510 384 L 510 388 L 509 389 L 509 391 L 508 392 L 508 394 L 507 395 L 507 398 L 506 399 L 506 401 L 505 402 L 505 405 L 504 406 L 504 407 L 503 408 L 503 411 L 502 412 L 502 415 L 501 416 L 501 418 L 500 419 L 500 422 L 499 423 L 499 425 L 498 426 L 498 429 L 497 430 L 497 433 L 496 434 L 496 435 L 495 436 L 495 439 L 494 440 L 494 442 L 493 443 L 493 446 L 492 447 L 492 450 L 491 451 L 491 452 L 490 453 L 490 457 L 489 458 L 489 459 L 488 460 L 488 463 L 487 464 L 487 467 L 486 468 L 486 469 L 485 470 L 485 474 L 484 475 L 484 477 L 483 478 L 483 480 L 482 481 L 482 484 L 481 485 L 481 487 L 480 488 L 480 491 L 479 492 L 479 494 L 478 495 L 478 498 L 477 499 L 477 501 L 476 502 L 476 504 L 475 505 L 475 509 L 474 510 L 474 511 L 473 512 L 473 515 L 472 516 L 472 518 L 471 519 L 471 522 L 470 523 L 470 526 L 469 527 L 469 528 L 468 529 L 468 533 L 467 534 L 467 536 L 466 537 L 466 539 L 465 540 L 465 543 L 464 544 L 464 545 L 463 546 L 463 550 L 462 551 L 462 553 L 461 554 L 461 556 L 460 557 L 460 560 L 459 561 L 459 563 L 458 564 L 458 567 L 457 568 L 457 570 L 456 571 L 456 574 L 455 575 L 455 578 L 454 579 L 454 581 L 453 582 L 453 584 L 452 585 L 452 587 L 451 588 L 451 591 L 450 592 L 450 595 L 449 596 L 449 598 L 448 599 L 448 602 L 447 603 L 447 604 L 446 605 L 446 608 L 445 609 L 445 612 L 444 613 L 444 615 L 443 616 L 443 619 L 442 620 L 442 622 L 441 623 L 441 625 L 440 626 L 440 629 L 439 630 L 439 632 L 438 633 L 438 636 L 437 637 L 437 639 L 436 640 L 436 643 L 435 644 L 435 647 L 434 648 L 434 649 L 433 650 L 433 654 L 432 655 L 432 656 L 431 657 L 431 660 L 430 661 L 430 663 L 429 664 L 429 666 L 428 667 L 428 671 L 427 672 L 427 674 L 426 675 L 426 678 L 425 679 L 425 681 L 424 682 L 424 684 L 423 685 L 423 689 L 422 690 L 422 691 L 421 692 L 421 695 L 420 696 L 420 698 L 419 699 L 419 701 L 418 702 L 418 706 L 417 707 L 417 708 L 416 709 L 416 713 L 415 714 L 415 716 L 414 717 L 414 719 L 413 720 L 413 723 L 412 724 L 412 725 L 411 726 L 411 730 L 410 731 L 410 733 L 409 734 L 409 736 L 408 737 L 408 740 L 407 741 L 407 742 L 406 743 L 406 747 L 405 748 L 405 750 L 404 751 L 404 753 L 403 754 L 403 757 L 402 758 L 402 760 L 401 761 L 401 765 L 400 766 L 400 767 L 399 768 L 399 771 L 398 772 L 398 774 L 397 775 L 397 777 L 396 778 L 396 781 L 395 782 L 395 784 L 394 785 L 394 788 L 393 789 L 393 792 L 392 793 L 392 795 L 391 796 L 391 799 L 390 800 L 390 801 L 389 802 L 389 806 L 388 807 L 388 809 L 387 810 L 387 812 L 386 813 L 386 816 L 385 817 L 385 818 L 384 819 L 384 823 L 383 824 L 383 826 L 382 827 L 382 829 L 381 830 L 381 835 L 380 836 L 380 846 L 381 847 L 381 851 L 382 852 L 382 854 L 383 855 L 383 857 L 384 858 L 384 859 L 385 860 L 385 861 L 387 863 L 387 864 L 396 873 L 397 873 L 398 874 L 399 874 L 400 875 L 401 875 L 402 876 L 403 876 L 404 877 L 407 877 L 408 878 L 410 878 L 411 879 L 427 879 L 428 878 L 429 878 L 430 877 L 432 877 L 433 876 L 435 876 L 436 875 L 437 875 L 438 874 L 439 874 L 441 872 L 442 872 L 444 870 L 445 870 L 445 869 L 450 864 L 450 863 L 452 861 L 452 860 L 453 859 L 453 858 L 454 857 L 454 855 L 455 854 L 455 852 L 456 851 L 456 848 L 457 847 L 457 846 L 458 845 L 458 841 L 459 840 L 459 838 L 460 837 L 460 835 L 461 834 L 461 832 L 462 831 L 462 828 L 463 827 L 463 823 L 464 822 L 464 821 L 465 820 L 465 818 L 466 817 L 466 814 L 467 813 L 467 811 L 468 810 L 468 806 L 469 805 L 469 804 L 470 803 L 470 800 L 471 799 L 471 796 L 472 795 L 472 793 L 473 792 L 473 789 L 474 788 L 474 787 L 475 786 L 475 783 L 476 782 L 476 780 L 477 779 L 477 776 L 478 775 L 478 772 L 479 771 L 479 770 L 480 769 L 480 765 L 481 764 L 481 762 L 482 761 L 482 759 L 483 758 L 483 755 L 484 754 L 484 752 L 485 751 L 485 747 L 486 746 L 486 745 L 487 744 L 487 741 L 488 740 L 488 737 L 489 736 L 489 734 L 490 733 L 490 730 L 491 729 L 491 728 L 492 727 L 492 724 L 493 723 L 493 720 L 494 719 L 494 717 L 495 716 L 495 713 L 496 712 L 496 711 L 497 710 L 497 706 L 498 705 L 498 703 L 499 702 L 499 700 L 500 699 L 500 697 L 501 696 L 501 694 L 502 693 L 502 689 L 503 688 L 503 685 L 504 684 L 504 683 L 505 682 L 505 680 L 506 679 L 506 678 L 507 677 L 507 676 L 508 675 L 508 674 L 510 672 L 510 671 L 517 664 L 518 664 L 520 662 L 521 662 L 523 660 L 524 660 L 525 659 L 526 659 L 527 658 L 529 658 L 530 657 L 532 657 L 533 656 L 565 656 L 566 657 L 568 657 L 569 658 L 570 658 L 571 659 L 573 659 L 575 661 L 576 661 L 577 662 L 578 662 L 582 666 L 583 666 L 585 668 L 585 669 L 589 673 L 589 674 L 590 675 L 590 676 L 591 677 L 591 678 L 593 680 L 593 682 L 594 683 L 594 689 L 595 690 L 595 697 L 594 698 L 594 704 L 593 705 L 593 708 L 592 709 L 592 711 L 591 712 L 591 714 L 590 715 L 590 717 L 589 718 L 589 722 L 588 723 L 588 724 L 587 725 L 587 728 L 586 729 L 586 732 L 585 733 L 585 735 L 584 736 L 584 739 L 583 740 L 583 741 L 582 742 L 582 745 L 581 746 L 581 749 L 580 750 L 580 752 L 579 753 L 579 756 L 578 757 L 578 758 L 577 759 L 577 762 L 576 763 L 576 767 L 575 768 L 575 769 L 574 770 L 574 773 L 573 774 L 573 775 L 572 776 L 572 780 L 571 781 L 571 784 L 570 785 L 570 786 L 569 787 L 569 790 L 568 791 L 568 793 L 567 794 L 567 798 L 566 799 L 566 801 L 565 802 L 565 804 L 564 805 L 564 808 L 563 809 L 563 810 L 562 811 L 562 815 L 561 816 L 561 817 L 560 818 L 560 821 L 559 822 L 559 825 L 558 826 L 558 828 L 557 829 L 557 831 L 556 832 L 556 834 L 555 835 L 555 838 L 554 839 L 554 843 L 553 844 L 553 845 L 552 846 L 552 849 L 551 850 L 551 852 L 550 853 L 550 856 L 549 857 L 549 860 L 548 861 L 548 862 L 547 863 L 547 866 L 546 867 L 546 870 L 545 871 L 545 873 L 544 874 L 544 877 L 543 878 L 543 880 L 542 881 L 542 884 L 541 885 L 541 887 L 540 888 L 540 890 L 539 891 L 539 894 L 538 895 L 538 897 L 537 898 L 537 902 L 536 903 L 536 904 L 535 905 L 535 907 L 534 908 L 534 911 L 533 912 L 533 914 L 532 915 L 532 919 L 531 920 L 531 921 L 530 922 L 530 925 L 529 926 L 529 929 L 528 930 L 528 932 L 527 933 L 527 936 L 526 937 L 526 938 L 525 939 L 525 942 L 524 943 L 524 946 L 523 947 L 523 949 L 522 950 L 522 953 L 521 954 L 521 956 L 520 957 L 520 960 L 519 961 L 519 964 L 518 965 L 518 966 L 517 967 L 517 970 L 516 971 L 516 973 L 515 974 L 515 977 L 514 978 L 514 980 L 513 981 L 513 983 L 512 984 L 512 987 L 511 988 L 511 990 L 510 991 L 510 994 L 509 995 L 509 997 L 508 998 L 508 1001 L 507 1002 L 507 1017 L 508 1018 L 508 1020 L 509 1021 L 509 1023 L 510 1024 L 510 1026 L 511 1027 L 511 1028 L 512 1029 L 512 1030 L 514 1032 L 514 1033 L 522 1041 L 523 1041 L 525 1043 L 527 1043 L 529 1045 L 532 1045 L 533 1046 L 535 1046 L 536 1047 L 542 1047 L 543 1048 L 573 1048 L 574 1047 L 577 1047 L 578 1048 L 587 1048 L 588 1047 L 605 1047 L 606 1046 L 612 1046 L 613 1045 L 624 1045 L 625 1044 L 629 1044 L 630 1043 L 634 1043 L 635 1042 L 642 1042 L 643 1041 L 646 1041 L 647 1040 L 653 1040 L 654 1039 L 656 1039 L 657 1038 L 662 1038 L 663 1037 L 666 1037 L 667 1036 L 669 1036 L 670 1035 L 674 1035 L 675 1034 L 677 1034 L 678 1033 L 681 1033 L 682 1032 L 686 1032 L 687 1031 L 689 1031 L 690 1030 L 692 1030 L 693 1029 L 695 1029 L 696 1028 L 698 1028 L 699 1027 L 701 1027 L 702 1026 L 704 1026 L 705 1025 L 708 1025 L 709 1024 L 710 1024 L 711 1023 L 713 1023 L 714 1022 L 716 1022 L 717 1021 L 718 1021 L 719 1020 L 721 1020 L 722 1019 L 724 1019 L 725 1018 L 727 1018 L 729 1016 L 731 1016 L 732 1015 L 734 1015 L 735 1014 L 736 1014 L 737 1013 L 738 1013 L 739 1012 L 740 1012 L 741 1011 L 743 1011 L 744 1010 L 745 1010 L 746 1009 L 747 1009 L 748 1008 L 750 1008 L 752 1006 L 754 1006 L 755 1005 L 756 1005 L 757 1004 L 758 1004 L 759 1003 L 760 1003 L 761 1002 L 762 1002 L 763 1001 L 764 1001 L 765 1000 L 766 1000 L 767 999 L 768 999 L 770 997 L 771 997 L 772 996 L 773 996 L 774 995 L 775 995 L 776 994 L 777 994 L 778 993 L 779 993 L 780 992 L 781 992 L 783 990 L 784 990 L 785 989 L 786 989 L 787 988 L 788 988 L 790 986 L 791 986 L 792 985 L 793 985 L 796 982 L 797 982 L 798 981 L 799 981 L 801 979 L 802 979 L 803 978 L 804 978 L 806 976 L 807 976 L 810 973 L 811 973 L 813 971 L 814 971 L 816 969 L 817 969 L 820 966 L 821 966 L 823 964 L 824 964 L 827 961 L 828 961 L 831 958 L 832 958 L 836 954 L 837 954 L 842 949 L 843 949 L 847 945 L 848 945 L 857 936 L 858 936 L 886 908 L 886 907 L 896 897 L 896 896 L 899 893 L 899 892 L 904 887 L 904 886 L 908 882 L 908 881 L 911 878 L 911 877 L 913 875 L 913 874 L 916 871 L 916 870 L 919 867 L 919 866 L 921 864 L 921 863 L 923 861 L 923 860 L 926 857 L 926 856 L 928 854 L 928 853 L 930 851 L 930 850 L 931 849 L 931 848 L 933 846 L 933 845 L 935 843 L 935 842 L 936 841 L 936 840 L 938 838 L 938 837 L 939 836 L 939 835 L 940 834 L 940 833 L 942 831 L 942 830 L 943 829 L 943 828 L 944 827 L 944 826 L 945 825 L 945 824 L 947 822 L 947 821 L 948 820 L 948 819 L 949 818 L 949 817 L 950 816 L 950 815 L 951 814 L 951 813 L 952 812 L 952 811 L 953 810 L 953 809 L 954 808 L 954 807 L 955 806 L 955 805 L 956 804 L 956 802 L 958 800 L 958 798 L 959 797 L 959 796 L 960 795 L 960 794 L 961 793 L 961 792 L 962 791 L 962 790 L 963 789 L 963 788 L 964 787 L 964 785 L 965 784 L 965 782 L 966 781 L 966 780 L 967 779 L 967 778 L 968 777 L 968 775 L 969 774 L 969 773 L 970 772 L 970 769 L 971 768 L 971 767 L 972 766 L 972 764 L 973 763 L 973 761 L 974 760 L 974 759 L 975 758 L 975 756 L 976 755 L 976 753 L 977 752 L 977 750 L 978 749 L 978 746 L 979 745 L 979 744 L 980 743 L 980 740 L 981 739 L 981 737 L 982 736 L 982 733 L 983 732 L 983 728 L 984 727 L 984 726 L 985 725 L 985 721 L 986 720 L 986 718 L 987 717 L 987 713 L 988 712 L 988 708 L 989 707 L 989 705 L 990 704 L 990 698 L 991 697 L 991 693 L 992 692 L 992 687 L 993 686 L 993 681 L 994 680 L 994 676 L 995 675 L 995 664 L 996 663 L 996 657 L 997 656 L 997 642 L 998 641 L 998 590 L 997 589 L 997 575 L 996 574 L 996 568 L 995 567 L 995 556 L 994 555 L 994 551 L 993 550 L 993 545 L 992 544 L 992 539 L 991 538 L 991 534 L 990 533 L 990 528 L 989 527 L 989 525 L 988 524 L 988 519 L 987 518 L 987 514 L 986 513 L 986 511 L 985 510 L 985 506 L 984 505 L 984 504 L 983 503 L 983 499 L 982 498 L 982 495 L 981 494 L 981 492 L 980 491 L 980 488 L 978 486 L 978 483 L 977 482 L 977 479 L 976 478 L 976 476 L 975 475 L 975 474 L 974 473 L 974 471 L 973 470 L 973 468 L 972 467 L 972 465 L 971 464 L 971 463 L 970 462 L 970 460 L 969 459 L 969 457 L 968 456 L 968 454 L 966 452 L 966 451 L 965 450 L 965 447 L 964 446 L 964 445 L 963 444 L 963 442 L 962 441 L 962 440 L 961 439 L 961 438 L 960 437 L 960 436 L 959 435 L 959 434 L 958 433 L 958 431 L 956 429 L 956 427 L 955 426 L 955 425 L 954 424 L 954 423 L 953 422 L 953 421 L 952 420 L 952 419 L 951 418 L 951 417 L 950 416 L 950 415 L 948 413 L 948 412 L 947 411 L 947 410 L 946 409 L 946 408 L 945 407 L 945 406 L 944 405 L 944 404 L 943 403 L 943 402 L 942 401 L 942 400 L 940 398 L 940 397 L 938 395 L 938 394 L 937 393 L 937 392 L 936 391 L 936 390 L 934 388 L 934 387 L 932 385 L 932 384 L 931 383 L 931 382 L 929 380 L 929 379 L 927 377 L 927 376 L 926 375 L 926 374 L 923 371 L 923 370 L 921 368 L 921 367 L 918 364 L 918 363 L 915 360 L 915 359 L 913 357 L 913 356 L 910 353 L 910 352 L 907 349 L 907 348 L 904 345 L 904 344 L 899 339 L 899 338 L 893 332 L 893 331 L 886 324 L 886 323 L 856 293 L 855 293 L 847 285 L 846 285 L 842 281 L 841 281 L 836 276 L 835 276 L 832 273 L 831 273 L 828 270 L 827 270 L 824 267 L 823 267 L 820 264 L 819 264 L 816 261 L 815 261 L 813 259 L 812 259 L 810 257 L 809 257 L 807 255 L 806 255 L 804 253 L 803 253 L 801 251 L 800 251 L 799 250 L 798 250 L 796 248 L 795 248 L 793 246 L 792 246 L 790 244 L 789 244 L 788 243 L 787 243 L 786 242 L 785 242 L 783 240 L 782 240 L 781 239 L 780 239 L 778 237 L 777 237 L 776 236 L 775 236 L 774 235 L 773 235 L 772 234 L 771 234 L 770 233 L 769 233 L 767 231 L 766 231 L 765 230 L 764 230 L 763 229 L 761 229 L 760 228 L 759 228 L 757 226 L 755 226 L 754 225 L 753 225 L 752 224 L 751 224 L 750 223 L 749 223 L 748 222 L 747 222 L 746 221 L 745 221 L 744 220 L 742 220 L 740 218 L 738 218 L 737 217 L 736 217 L 735 216 L 732 216 L 730 214 L 728 214 L 727 213 L 725 213 L 724 212 L 723 212 L 722 211 L 721 211 L 720 210 L 718 210 L 717 209 L 715 209 L 714 208 L 712 208 L 711 207 L 709 207 L 708 206 L 706 206 L 705 205 L 703 205 L 702 204 L 689 204 L 688 205 L 686 205 L 685 206 L 684 206 L 683 207 L 682 207 L 680 209 L 679 209 L 674 214 L 674 215 L 673 216 L 673 217 L 672 218 L 672 220 L 671 221 L 671 223 L 670 224 L 670 235 L 671 236 L 671 239 L 672 240 L 672 241 L 673 242 L 673 244 L 681 252 L 682 252 L 683 253 L 684 253 L 685 254 L 686 254 L 687 255 L 689 255 L 690 256 L 692 256 L 693 257 L 695 257 L 696 258 L 698 258 L 699 259 L 700 259 L 701 260 L 703 260 L 704 261 L 706 261 L 708 263 L 711 263 L 712 264 L 713 264 L 714 265 L 715 265 L 716 266 L 717 266 L 718 267 L 719 267 L 720 268 L 722 268 L 723 269 L 724 269 L 725 270 L 726 270 L 727 271 L 728 271 L 729 272 L 730 272 L 731 273 L 732 273 L 733 274 L 734 274 L 735 275 L 736 275 L 737 276 L 738 276 L 739 277 L 740 277 L 741 278 L 742 278 L 744 280 L 745 280 L 746 281 L 747 281 L 748 282 L 749 282 L 750 283 L 751 283 L 752 284 L 753 284 L 755 286 L 756 286 L 757 287 L 758 287 L 759 288 L 760 288 L 762 290 L 763 290 L 764 291 L 765 291 L 767 293 L 768 293 L 770 295 L 771 295 L 772 296 L 773 296 L 775 298 L 776 298 L 778 300 L 779 300 L 782 303 L 783 303 L 785 305 L 786 305 L 789 308 L 790 308 L 793 311 L 794 311 L 797 314 L 798 314 L 802 318 L 803 318 L 806 321 L 807 321 L 813 327 L 814 327 L 824 337 L 825 337 L 834 346 L 834 347 L 835 347 L 846 358 L 846 359 L 854 367 L 854 368 L 858 372 L 858 373 L 862 377 L 862 378 L 866 382 L 866 383 L 869 386 L 869 387 L 872 390 L 872 391 L 874 393 L 874 394 L 877 397 L 877 398 L 879 400 L 879 401 L 881 403 L 881 404 L 883 406 L 883 407 L 886 410 L 886 411 L 887 412 L 887 413 L 889 415 L 889 416 L 891 418 L 891 419 L 892 420 L 892 421 L 893 422 L 893 423 L 895 425 L 895 426 L 896 427 L 896 428 L 897 429 L 897 430 L 899 432 L 899 433 L 900 434 L 900 435 L 901 436 L 901 437 L 902 438 L 902 439 L 903 440 L 903 441 L 905 443 L 905 445 L 906 446 L 906 447 L 907 448 L 907 449 L 908 450 L 908 451 L 909 452 L 909 453 L 910 454 L 910 455 L 911 456 L 911 457 L 912 458 L 912 459 L 913 460 L 913 462 L 914 463 L 914 464 L 915 465 L 915 466 L 916 467 L 916 468 L 917 469 L 917 471 L 918 472 L 918 474 L 919 475 L 919 476 L 920 477 L 920 478 L 921 479 L 921 481 L 922 482 L 922 484 L 923 485 L 923 487 L 924 488 L 924 489 L 925 490 L 925 492 L 926 493 L 926 495 L 927 496 L 927 498 L 928 499 L 928 501 L 929 502 L 929 504 L 930 505 L 930 508 L 931 509 L 931 512 L 932 513 L 932 514 L 933 515 L 933 519 L 934 520 L 934 522 L 935 523 L 935 527 L 936 528 L 936 531 L 937 532 L 937 534 L 938 535 L 938 541 L 939 542 L 939 545 L 940 546 L 940 552 L 941 553 L 941 558 L 942 559 L 942 563 L 943 564 L 943 575 L 944 576 L 944 581 L 945 582 L 945 596 L 946 597 L 946 631 L 945 632 L 945 648 L 944 649 L 944 655 L 943 656 L 943 667 L 942 668 L 942 672 L 941 673 L 941 678 L 940 679 L 940 685 L 939 686 L 939 689 L 938 690 L 938 696 L 937 697 L 937 699 L 936 700 L 936 703 L 935 704 L 935 708 L 934 709 L 934 711 L 933 712 L 933 716 L 932 717 L 932 718 L 931 719 L 931 722 L 930 723 L 930 726 L 929 727 L 929 729 L 928 730 L 928 732 L 927 733 L 927 735 L 926 736 L 926 738 L 925 739 L 925 741 L 924 742 L 924 744 L 923 745 L 923 746 L 922 747 L 922 749 L 921 750 L 921 752 L 920 753 L 920 754 L 919 755 L 919 756 L 918 757 L 918 760 L 917 761 L 917 762 L 916 763 L 916 764 L 915 765 L 915 766 L 914 767 L 914 768 L 913 769 L 913 771 L 912 772 L 912 773 L 911 774 L 911 775 L 910 776 L 910 777 L 909 778 L 909 779 L 908 780 L 908 782 L 906 784 L 906 785 L 905 786 L 905 788 L 903 790 L 903 791 L 902 792 L 902 793 L 901 794 L 901 795 L 900 796 L 900 797 L 899 798 L 899 799 L 898 800 L 898 801 L 896 803 L 896 804 L 895 805 L 895 806 L 893 808 L 893 809 L 892 810 L 892 811 L 891 812 L 891 813 L 889 815 L 889 816 L 887 818 L 887 819 L 886 820 L 886 821 L 883 824 L 883 825 L 882 826 L 882 827 L 879 830 L 879 831 L 877 833 L 877 834 L 874 837 L 874 838 L 872 840 L 872 841 L 869 844 L 869 845 L 866 848 L 866 849 L 862 853 L 862 854 L 858 858 L 858 859 L 853 864 L 853 865 L 845 873 L 845 874 L 835 884 L 834 884 L 834 885 L 824 895 L 823 895 L 816 902 L 815 902 L 810 907 L 809 907 L 804 912 L 803 912 L 800 915 L 799 915 L 795 919 L 794 919 L 791 922 L 790 922 L 788 924 L 787 924 L 784 927 L 783 927 L 781 929 L 780 929 L 778 931 L 777 931 L 775 933 L 774 933 L 771 936 L 770 936 L 769 937 L 768 937 L 766 939 L 765 939 L 764 940 L 763 940 L 762 941 L 761 941 L 759 943 L 758 943 L 756 945 L 755 945 L 754 946 L 753 946 L 751 948 L 750 948 L 749 949 L 748 949 L 747 950 L 746 950 L 745 951 L 744 951 L 743 952 L 742 952 L 741 953 L 740 953 L 738 955 L 736 955 L 735 956 L 734 956 L 733 957 L 732 957 L 731 958 L 730 958 L 729 959 L 728 959 L 727 960 L 726 960 L 725 961 L 724 961 L 723 962 L 722 962 L 721 963 L 719 963 L 718 964 L 717 964 L 716 965 L 715 965 L 714 966 L 712 966 L 711 967 L 710 967 L 709 968 L 707 968 L 706 969 L 705 969 L 704 970 L 703 970 L 702 971 L 700 971 L 699 972 L 697 972 L 696 973 L 694 973 L 693 974 L 692 974 L 691 975 L 689 975 L 688 976 L 685 976 L 684 977 L 683 977 L 682 978 L 679 978 L 678 979 L 677 979 L 676 980 L 673 980 L 672 981 L 669 981 L 668 982 L 666 982 L 665 983 L 662 983 L 661 984 L 658 984 L 657 985 L 654 985 L 653 986 L 649 986 L 648 987 L 646 987 L 645 988 L 640 988 L 639 989 L 635 989 L 634 990 L 628 990 L 627 991 L 622 991 L 621 992 L 616 992 L 615 991 L 613 991 L 612 990 L 610 990 L 608 988 L 607 988 L 601 982 L 601 981 L 599 979 L 599 977 L 598 976 L 598 973 L 597 972 L 597 969 L 598 968 L 598 965 L 599 964 L 599 960 L 600 959 L 600 958 L 601 957 L 601 954 L 602 953 L 602 950 L 603 949 L 603 947 L 604 946 L 604 943 L 605 942 L 605 941 L 606 940 L 606 937 L 607 936 L 607 933 L 608 932 L 608 930 L 609 929 L 609 926 L 610 925 L 610 924 L 611 923 L 611 919 L 612 918 L 612 916 L 613 915 L 613 913 L 614 912 L 614 909 L 615 908 L 615 906 L 616 905 L 616 902 L 617 901 L 617 899 L 618 898 L 618 896 L 619 895 L 619 892 L 620 891 L 620 889 L 621 888 L 621 885 L 622 884 L 622 881 L 623 880 L 623 878 L 624 877 L 624 874 L 625 873 L 625 871 L 626 870 L 626 868 L 627 867 L 627 865 L 628 864 L 628 861 L 629 860 L 629 856 L 630 855 L 630 854 L 631 853 L 631 850 L 632 849 L 632 847 L 633 846 L 633 843 L 634 842 L 634 839 L 635 838 L 635 837 L 636 836 L 636 833 L 637 832 L 637 830 L 638 829 L 638 826 L 639 825 L 639 822 L 640 821 L 640 820 L 641 819 L 641 815 L 642 814 L 642 812 L 643 811 L 643 808 L 644 807 L 644 805 L 646 803 L 646 798 L 647 797 L 647 796 L 648 795 L 648 792 L 649 791 L 649 789 L 650 788 L 650 785 L 651 784 L 651 781 L 652 780 L 652 778 L 653 777 L 653 774 L 654 773 L 654 770 L 655 769 L 655 767 L 656 766 L 656 763 L 657 762 L 657 761 L 658 760 L 658 757 L 659 756 L 659 754 L 660 753 L 660 750 L 661 749 L 661 747 L 662 746 L 662 744 L 663 743 L 663 739 L 664 738 L 664 736 L 665 735 L 665 733 L 666 732 L 666 729 L 667 728 L 667 727 L 668 726 L 668 722 L 669 721 L 669 719 L 670 718 L 670 716 L 671 715 L 671 712 L 672 711 L 672 709 L 673 708 L 673 704 L 674 703 L 674 702 L 675 701 L 675 699 L 676 698 L 676 695 L 677 694 L 677 692 L 678 691 L 678 688 L 679 687 L 679 685 L 680 684 L 680 681 L 681 680 L 681 677 L 682 676 L 682 674 L 683 673 L 683 671 L 684 670 L 684 668 L 685 667 L 685 664 L 686 663 L 686 660 L 687 659 L 687 657 L 688 656 L 688 653 L 689 652 L 689 650 L 690 649 L 690 646 L 691 645 L 691 643 L 692 642 L 692 640 L 693 639 L 693 636 L 694 635 L 694 633 L 695 632 L 695 629 L 696 628 L 696 625 L 697 624 L 697 623 L 698 622 L 698 618 L 699 617 L 699 616 L 700 615 L 700 612 L 701 611 L 701 609 L 702 608 L 702 606 L 703 605 L 703 601 L 704 600 L 704 598 L 705 597 L 705 594 L 706 593 L 706 591 L 707 590 L 707 588 L 708 587 L 708 583 L 709 582 L 709 581 L 710 580 L 710 578 L 711 577 L 711 574 L 712 573 L 712 570 L 713 569 L 713 567 L 714 566 L 714 564 L 715 563 L 715 560 L 716 559 L 716 556 L 717 555 L 717 553 L 718 552 L 718 549 L 719 548 L 719 547 L 720 546 L 720 543 L 721 542 L 721 539 L 722 538 L 722 536 L 723 535 L 723 532 L 724 531 L 724 530 L 725 529 L 725 525 L 726 524 L 726 522 L 727 521 L 727 519 L 728 518 L 728 515 L 729 514 L 729 512 L 730 511 L 730 507 L 731 506 L 731 505 L 732 504 L 732 501 L 733 500 L 733 497 L 734 496 L 734 495 L 735 494 L 735 491 L 736 490 L 736 488 L 737 487 L 737 484 L 738 483 L 738 480 L 739 479 L 739 477 L 740 476 L 740 473 L 741 472 L 741 471 L 742 470 L 742 466 L 743 465 L 743 463 L 744 462 L 744 461 L 745 460 L 745 456 L 746 455 L 746 454 L 747 453 L 747 449 L 748 448 L 748 445 L 749 444 L 749 443 L 750 442 L 750 439 L 751 438 L 751 436 L 752 435 L 752 432 L 753 431 L 753 429 L 754 428 L 754 426 L 755 425 L 755 420 L 756 419 L 756 418 L 757 417 L 757 415 L 758 414 L 758 412 L 759 411 L 759 408 L 760 407 L 760 404 L 761 403 L 761 402 L 762 401 L 762 396 L 763 395 L 763 385 L 762 384 L 762 379 L 761 378 L 761 376 L 760 375 L 760 374 L 759 373 L 759 371 L 757 369 L 757 368 L 755 366 L 755 365 L 749 359 L 748 359 L 746 357 L 745 357 L 744 356 L 743 356 L 742 355 L 741 355 L 740 354 L 738 354 L 737 353 L 736 353 L 735 352 L 729 352 L 728 351 L 722 351 L 721 352 L 714 352 L 713 353 L 712 353 L 711 354 L 709 354 L 708 355 L 707 355 L 706 356 L 705 356 L 704 357 L 703 357 L 700 360 L 699 360 L 695 364 L 695 365 L 693 367 L 693 368 L 691 370 L 691 371 L 690 372 L 690 374 L 689 375 L 689 376 L 688 377 L 688 379 L 687 380 L 687 382 L 686 383 L 686 386 L 685 387 L 685 390 L 684 391 L 684 393 L 683 394 L 683 397 L 682 398 L 682 399 L 681 400 L 681 403 L 680 404 L 680 407 L 679 408 L 679 410 L 678 411 L 678 414 L 677 415 L 677 417 L 676 418 L 676 421 L 675 422 L 675 424 L 674 425 L 674 427 L 673 428 L 673 432 L 672 433 L 672 434 L 671 435 L 671 437 L 670 438 L 670 441 L 669 442 L 669 444 L 668 445 L 668 449 L 667 450 L 667 451 L 666 452 L 666 455 L 665 456 L 665 458 L 664 459 L 664 462 L 663 463 L 663 466 L 662 467 L 662 468 L 661 469 L 661 473 L 660 474 L 660 476 L 659 477 L 659 479 L 658 480 L 658 483 L 657 484 L 657 486 L 656 487 L 656 490 L 655 491 L 655 493 L 654 494 L 654 497 L 653 498 L 653 501 L 652 502 L 652 503 L 651 504 L 651 507 L 650 508 L 650 511 L 649 512 L 649 514 L 648 515 L 648 517 L 647 518 L 647 520 L 646 521 L 646 525 L 645 526 L 645 527 L 644 528 L 644 531 L 643 532 L 643 534 L 642 535 L 642 537 L 641 538 L 641 542 L 640 543 L 640 544 L 639 545 L 639 548 L 638 549 L 638 551 L 637 552 L 637 553 L 636 554 L 636 555 L 634 557 L 634 558 L 632 560 L 632 561 L 630 563 L 629 563 L 623 569 L 622 569 L 621 570 L 620 570 L 618 572 L 616 572 L 615 573 L 614 573 L 613 574 L 610 574 L 609 575 L 578 575 L 577 574 L 575 574 L 574 573 L 573 573 L 572 572 L 570 572 L 569 571 L 568 571 L 566 569 L 565 569 L 554 558 L 554 557 L 553 556 L 553 555 L 552 554 L 552 553 L 551 552 L 551 551 L 550 550 L 550 549 L 549 548 L 549 543 L 548 542 L 548 533 L 549 532 L 549 527 L 550 526 L 550 523 L 551 522 L 551 520 L 552 519 L 552 516 L 553 515 L 553 514 L 554 513 L 554 510 L 555 509 L 555 506 L 556 505 L 556 503 L 557 502 L 557 499 L 558 498 L 558 497 L 559 496 L 559 492 L 560 491 L 560 488 L 561 487 L 561 486 L 562 485 L 562 482 L 563 481 L 563 479 L 564 478 L 564 474 L 565 473 L 565 472 L 566 471 L 566 468 L 567 467 L 567 464 L 568 463 L 568 462 L 569 461 L 569 458 L 570 457 L 570 455 L 571 454 L 571 451 L 572 450 L 572 447 L 573 446 L 573 444 L 574 443 L 574 440 L 575 439 L 575 438 L 576 437 L 576 434 L 577 433 L 577 429 L 579 427 L 579 423 L 580 422 L 580 420 L 581 419 L 581 416 L 582 415 L 582 412 L 583 411 L 583 410 L 584 409 L 584 406 L 585 405 L 585 403 L 586 402 L 586 399 L 587 398 L 587 395 L 588 394 L 588 393 L 589 392 L 589 388 L 590 387 L 590 385 L 591 384 L 591 382 L 592 381 L 592 379 L 593 378 L 593 376 L 594 375 L 594 371 L 595 370 L 595 368 L 596 367 L 596 365 L 597 364 L 597 361 L 598 360 L 598 358 L 599 357 L 599 353 L 600 352 L 600 351 L 601 350 L 601 347 L 602 346 L 602 343 L 603 342 L 603 341 L 604 340 L 604 337 L 605 336 L 605 334 L 606 333 L 606 330 L 607 329 L 607 326 L 608 325 L 608 324 L 609 323 L 609 319 L 610 318 L 610 317 L 611 316 L 611 312 L 612 311 L 612 309 L 613 308 L 613 306 L 614 305 L 614 302 L 615 301 L 615 299 L 616 298 L 616 295 L 617 294 L 617 292 L 618 291 L 618 289 L 619 288 L 619 285 L 620 284 L 620 282 L 621 281 L 621 277 L 622 276 L 622 275 L 623 274 L 623 272 L 624 271 L 624 267 L 625 266 L 625 264 L 626 263 L 626 261 L 627 260 L 627 258 L 628 257 L 628 254 L 629 253 L 629 249 L 630 248 L 630 247 L 631 246 L 631 244 L 632 243 L 632 241 L 633 240 L 633 237 L 634 236 L 634 232 L 635 231 L 635 230 L 636 229 L 636 215 L 635 214 L 635 213 L 634 212 L 634 209 L 633 208 L 633 207 L 632 206 L 632 204 L 631 203 L 631 202 L 629 200 L 629 199 L 626 196 L 626 195 L 624 193 L 623 193 L 619 189 L 618 189 L 617 188 L 616 188 L 615 187 L 614 187 L 613 186 L 610 186 L 609 185 L 607 185 L 606 184 L 599 184 L 598 183 L 585 183 L 584 182 L 570 182 L 569 183 L 566 183 L 565 182 Z" stroke-linecap="round" />
</g>
</svg>